# xmcd CD database file
#
# Track frame offsets:
#	150
#	27049
#	52207
#	84847
#	104466
#	125285
#	160528
#	191032
#
# Disc length: 2725 seconds
#
# Revision: 0
# Processed by: cddbd v1.5.1PL2 Copyright (c) Steve Scherf et al.
# Submitted via: CDex 1.51
#
DISCID=5c0aa308
DTITLE=Franz Koglmann - An Affair With Strauss
DYEAR=1999
DGENRE=Jazz
TTITLE0=A Metropolitan Affair
TTITLE1=Next to Nothing--A Non Affair
TTITLE2=An Atypical Affair
TTITLE3=Sauve Qui Peut(Vienne)
TTITLE4=Dear Little Pipistrelle
TTITLE5=Lover
TTITLE6=Out Of Strauss
TTITLE7=Good Night Vienna
EXTD=YEAR: 1999
EXTT0=
EXTT1=
EXTT2=
EXTT3=
EXTT4=
EXTT5=
EXTT6=
EXTT7=
PLAYORDER=
